<?xml version="1.0" encoding="UTF-8"?>
<svg version="1.1" xmlns="http://www.w3.org/2000/svg" width="500" height="500">
<path d="M0 0 C9.07884739 0.46188078 17.41876605 1.79596916 26.1875 4.1875 C27.36223877 4.50138672 28.53697754 4.81527344 29.74731445 5.13867188 C50.76250219 10.8375107 69.93496218 18.51955463 89 29 C90.08152344 29.57234375 91.16304688 30.1446875 92.27734375 30.734375 C93.25832031 31.25515625 94.23929687 31.7759375 95.25 32.3125 C96.52617187 32.98732422 96.52617187 32.98732422 97.828125 33.67578125 C101.48351345 35.90451629 101.48351345 35.90451629 103 38 C103.25653215 40.69905177 103.33095941 43.15752688 103.26464844 45.85205078 C103.25693924 46.65067535 103.24923004 47.44929993 103.24128723 48.27212524 C103.21199624 50.91360512 103.16096764 53.55418148 103.109375 56.1953125 C103.08388036 58.02707336 103.05958369 59.85885126 103.03643799 61.69064331 C102.9848565 65.52915641 102.92334407 69.36733363 102.85400391 73.20556641 C102.76506677 78.13653481 102.69365239 83.06755086 102.62871933 87.99888802 C102.56608382 92.6894615 102.49410667 97.37987885 102.421875 102.0703125 C102.40892143 102.97107639 102.39596786 103.87184029 102.38262177 104.79990005 C102.34459907 107.33563447 102.2998659 109.8711552 102.25292969 112.40673828 C102.24246109 113.16519043 102.23199249 113.92364258 102.22120667 114.70507812 C102.11470455 119.88529545 102.11470455 119.88529545 101 121 C97.86440114 121.09534958 94.75086387 121.12550879 91.61499023 121.11352539 C90.13710526 121.11374443 90.13710526 121.11374443 88.62936401 121.1139679 C85.35575193 121.11326832 82.08219596 121.10547385 78.80859375 121.09765625 C76.54557832 121.09579223 74.28256249 121.09436825 72.01954651 121.09336853 C66.05021052 121.0895421 60.08089868 121.07971075 54.11157227 121.06866455 C48.02555671 121.05845312 41.93953727 121.05387149 35.85351562 121.04882812 C23.90233311 121.03808859 11.95116856 121.02101068 0 121 C-0.15449157 107.4384464 -0.3026633 93.87683945 -0.4429636 80.31513119 C-0.50831826 74.01660848 -0.57577739 67.71812353 -0.64819336 61.41967773 C-0.71811403 55.33131517 -0.78231415 49.24291575 -0.84269524 43.15445137 C-0.866607 40.84185187 -0.89251399 38.52927204 -0.92053413 36.21671867 C-1.06611616 24.09265819 -1.11597115 12.08295519 0 0 Z " fill="#FEFEFE" transform="translate(144,105)"/>
<path d="M0 0 C0.99 0.33 1.98 0.66 3 1 C3 40.6 3 80.2 3 121 C-3.97804051 121.63436732 -10.64428078 122.1443572 -17.60229492 122.11352539 C-18.49147614 122.11367142 -19.38065735 122.11381744 -20.29678345 122.1139679 C-23.19137138 122.11327969 -26.08589228 122.10553933 -28.98046875 122.09765625 C-31.00498927 122.09578818 -33.02951024 122.09436611 -35.05403137 122.09336853 C-40.34918494 122.089574 -45.64431052 122.0797703 -50.93945312 122.06866455 C-56.35611594 122.05838413 -61.77278334 122.05385678 -67.18945312 122.04882812 C-77.79298096 122.03814492 -88.39648814 122.02110585 -99 122 C-99.0694446 111.22999767 -99.12278307 100.46004841 -99.15543652 89.68986797 C-99.17110684 84.68907971 -99.19237004 79.68844438 -99.22631836 74.68774414 C-99.25886309 69.86372686 -99.27684271 65.03985687 -99.28463173 60.2157383 C-99.29018404 58.37328586 -99.30102608 56.53084167 -99.31719017 54.68845177 C-99.33889965 52.11202816 -99.34196967 49.53621683 -99.34057617 46.9597168 C-99.351362 46.19439133 -99.36214783 45.42906586 -99.3732605 44.64054871 C-99.34292362 39.47283335 -99.34292362 39.47283335 -97.61453247 37.0896759 C-95.55608693 35.70039539 -93.48607514 34.41236215 -91.32421875 33.1875 C-90.41349609 32.66929687 -89.50277344 32.15109375 -88.56445312 31.6171875 C-87.61505859 31.08351562 -86.66566406 30.54984375 -85.6875 30 C-84.74970703 29.46632812 -83.81191406 28.93265625 -82.84570312 28.3828125 C-69.81559002 21 -69.81559002 21 -66 21 C-65.67 20.34 -65.34 19.68 -65 19 C-62.968677 18.09331506 -60.89834104 17.27305747 -58.8125 16.5 C-57.68457031 16.0771875 -56.55664062 15.654375 -55.39453125 15.21875 C-52.27627244 14.09919102 -49.14630712 13.03756723 -46 12 C-45.07960938 11.68160156 -44.15921875 11.36320312 -43.2109375 11.03515625 C-31.63237566 7.06399661 -19.9741251 4.52897643 -7.94555664 2.35742188 C-7.06246826 2.19564453 -6.17937988 2.03386719 -5.26953125 1.8671875 C-4.47135986 1.72394043 -3.67318848 1.58069336 -2.85083008 1.43310547 C-0.99451253 1.17030995 -0.99451253 1.17030995 0 0 Z " fill="#FEFEFE" transform="translate(353,104)"/>
<path d="M0 0 C1.82812939 0.01497071 3.65621665 0.03565571 5.48423767 0.06056213 C6.97675301 0.07497345 6.97675301 0.07497345 8.49942017 0.0896759 C11.80554497 0.12279534 15.1115429 0.16307807 18.41758728 0.2033844 C20.70301865 0.22767288 22.98845478 0.25151706 25.27389526 0.27493286 C31.30245876 0.33790043 37.33093842 0.40693095 43.35942078 0.47718811 C50.58549852 0.56015494 57.8116576 0.63565534 65.03780365 0.71239471 C76.02775277 0.82994681 87.01755485 0.95703342 98.00743103 1.08229065 C98.00743103 19.56229065 98.00743103 38.04229065 98.00743103 57.08229065 C93.8682453 56.2544535 91.23841908 55.39840041 87.53477478 53.60572815 C86.48088562 53.10315491 85.42699646 52.60058167 84.34117126 52.08277893 C83.22041199 51.5463678 82.09965271 51.00995667 80.94493103 50.45729065 C53.20809352 37.4739269 25.52402925 30.72345982 -4.99256897 28.08229065 C-5.02143235 23.60313737 -5.03932084 19.12400774 -5.05506897 14.64479065 C-5.06344788 13.36539612 -5.07182678 12.08600159 -5.08045959 10.76783752 C-5.08368225 9.55289612 -5.08690491 8.33795471 -5.09022522 7.0861969 C-5.09546204 5.96028137 -5.10069885 4.83436584 -5.10609436 3.67433167 C-4.9215741 -0.53868252 -4.45362971 0.09179355 0 0 Z " fill="#FDFEFE" transform="translate(148.99256896972656,273.91770935058594)"/>
<path d="M0 0 C0.94082932 0.00359528 1.88165863 0.00719055 2.85099792 0.01089478 C4.3288829 0.01067574 4.3288829 0.01067574 5.83662415 0.01045227 C9.11023623 0.01115185 12.3837922 0.01894632 15.65739441 0.02676392 C17.92040984 0.02862794 20.18342567 0.03005191 22.44644165 0.03105164 C28.41577764 0.03487807 34.38508948 0.04470942 40.35441589 0.05575562 C46.44043145 0.06596705 52.52645089 0.07054868 58.61247253 0.07559204 C70.56365505 0.08633157 82.5148196 0.10340949 94.46598816 0.12442017 C94.49485353 4.43690626 94.51274071 8.74936778 94.52848816 13.06192017 C94.53686707 14.29361938 94.54524597 15.5253186 94.55387878 16.79434204 C94.55710144 17.96416626 94.5603241 19.13399048 94.56364441 20.33926392 C94.56888123 21.42328491 94.57411804 22.50730591 94.57951355 23.62417603 C94.46598816 26.12442017 94.46598816 26.12442017 93.46598816 27.12442017 C91.87463191 27.36364242 90.27454609 27.54521022 88.67301941 27.70254517 C56.30225555 31.09330146 26.0738899 39.89196491 -2.68635559 55.31192017 C-4.53401184 56.12442017 -4.53401184 56.12442017 -7.53401184 56.12442017 C-7.55927747 48.30989265 -7.57684289 40.49537558 -7.58894348 32.68081665 C-7.59398567 30.02000535 -7.6008192 27.35919685 -7.60945129 24.69839478 C-7.62152193 20.88336501 -7.62724113 17.06837173 -7.63166809 13.25332642 C-7.63682938 12.05542984 -7.64199066 10.85753326 -7.64730835 9.62333679 C-7.64738388 8.52227097 -7.64745941 7.42120514 -7.64753723 6.28677368 C-7.64975784 5.3119252 -7.65197845 4.33707672 -7.65426636 3.33268738 C-7.39755987 -1.3812854 -3.92006604 0.00633077 0 0 Z " fill="#FEFEFE" transform="translate(261.5340118408203,274.8755798339844)"/>
<path d="M0 0 C3.96 0 7.92 0 12 0 C12.33 10.89 12.66 21.78 13 33 C18.259375 33.5775 23.51875 34.155 28.9375 34.75 C52.60046325 37.49443594 52.60046325 37.49443594 64 41 C64.87140625 41.26264648 65.7428125 41.52529297 66.640625 41.79589844 C85.55240291 47.57804675 105.15868807 54.11334862 121.37890625 65.69921875 C124.82683962 67.41033919 126.33507698 67.09118939 130 66 C132.46225066 64.8969117 134.8087497 63.75764744 137.1875 62.5 C138.61782735 61.76953515 140.04884577 61.04042228 141.48046875 60.3125 C142.22345215 59.93222656 142.96643555 59.55195313 143.73193359 59.16015625 C158.43282903 51.64038713 173.18972783 45.80945847 189 41 C189.75893555 40.76909668 190.51787109 40.53819336 191.29980469 40.30029297 C203.78248263 36.57671663 216.24140346 34.85501004 229.22802734 34.42895508 C233.47631587 34.25299345 235.91604954 33.63358018 240 32 C240.33 21.44 240.66 10.88 241 0 C244.96 0 248.92 0 253 0 C253 14.52 253 29.04 253 44 C249.060625 44.226875 245.12125 44.45375 241.0625 44.6875 C227.40287479 45.62418376 214.31533906 47.87839938 201 51 C200.05769531 51.21640137 199.11539063 51.43280273 198.14453125 51.65576172 C175.07100245 57.03395349 150.64974392 64.21400337 129.84375 75.75 C127 77 127 77 124.90234375 76.84765625 C124.25394531 76.58855469 123.60554688 76.32945312 122.9375 76.0625 C122.1640625 75.76085937 121.390625 75.45921875 120.59375 75.1484375 C116.5611158 73.36290368 112.57279158 71.48628673 108.58203125 69.609375 C97.38766591 64.57984553 85.66056923 60.78389333 74 57 C73.03835937 56.66226563 72.07671875 56.32453125 71.0859375 55.9765625 C60.33679639 52.35488423 49.13753119 50.59221377 38.00195312 48.56494141 C35.32892112 48.06190009 32.67717609 47.49927359 30.01953125 46.921875 C24.02013721 45.70927663 17.97196977 45.30745948 11.875 44.875 C10.72773438 44.78863281 9.58046875 44.70226562 8.3984375 44.61328125 C5.59931798 44.40334729 2.79991205 44.19903375 0 44 C-0.16873741 39.0197592 -0.32916744 34.03934259 -0.48217773 29.05859375 C-0.53527852 27.36711577 -0.59057914 25.67570526 -0.64819336 23.984375 C-0.73100422 21.54181466 -0.8056859 19.09911446 -0.87890625 16.65625 C-0.90594131 15.91008423 -0.93297638 15.16391846 -0.96083069 14.3951416 C-1.09786231 9.48466451 -0.71344659 4.86200639 0 0 Z " fill="#FCFDFD" transform="translate(124,275)"/>
<path d="M0 0 C1.98 0 3.96 0 6 0 C6.33 16.5 6.66 33 7 50 C12.094375 50.433125 17.18875 50.86625 22.4375 51.3125 C34.08465291 52.35332386 45.5611792 53.49239064 57 56 C57.73847168 56.15130371 58.47694336 56.30260742 59.23779297 56.45849609 C84.02697261 61.56259885 107.71796064 70.25727424 130.61352539 80.921875 C135.80404526 83.26676868 139.38093532 84.77280454 145 83 C147.90242923 81.63754469 150.7316629 80.15900778 153.57421875 78.67578125 C159.21110672 75.9183982 165.08695312 73.87171078 170.98388672 71.74560547 C172.87921762 71.04466813 174.75502399 70.29156728 176.62890625 69.53515625 C204.53783194 58.37750515 235.30628746 52.95080449 265.18701172 50.76708984 C266.18619629 50.69312988 267.18538086 50.61916992 268.21484375 50.54296875 C269.11195068 50.48520264 270.00905762 50.42743652 270.93334961 50.36791992 C271.61534424 50.24650635 272.29733887 50.12509277 273 50 C274.19822872 47.60354256 274.15627315 46.04337973 274.20532227 43.36669922 C274.22526749 42.40585419 274.24521271 41.44500916 274.26576233 40.45504761 C274.28247482 39.41542877 274.29918732 38.37580994 274.31640625 37.3046875 C274.3475779 35.71081711 274.3475779 35.71081711 274.37937927 34.08474731 C274.44490261 30.68156562 274.50377273 27.27830511 274.5625 23.875 C274.60568257 21.57160634 274.64929677 19.26822074 274.69335938 16.96484375 C274.80058682 11.30997979 274.90234802 5.65503697 275 0 C276.65 0 278.3 0 280 0 C280.17686942 7.65786865 280.34283137 15.31590723 280.49477577 22.97430992 C280.56567064 26.53021705 280.64035562 30.08596116 280.72363281 33.64160156 C280.81915357 37.72703331 280.89831341 41.8126382 280.9765625 45.8984375 C281.02485703 47.81878311 281.02485703 47.81878311 281.0741272 49.77792358 C281.09429901 50.95899689 281.11447083 52.14007019 281.13525391 53.35693359 C281.15746002 54.40062103 281.17966614 55.44430847 281.20254517 56.5196228 C281 59 281 59 279 61 C277.0300293 61.34716797 277.0300293 61.34716797 274.57421875 61.4921875 C273.18493164 61.5862085 273.18493164 61.5862085 271.76757812 61.68212891 C270.75115234 61.74577637 269.73472656 61.80942383 268.6875 61.875 C232.14038564 64.62983536 196.70509939 71.96869802 162.73046875 85.94921875 C162.11646713 86.20177933 161.50246552 86.4543399 160.86985779 86.71455383 C157.87177889 87.95309547 154.88404443 89.21157411 151.9050293 90.49536133 C150.830354 90.95064209 149.75567871 91.40592285 148.6484375 91.875 C147.22797119 92.48988281 147.22797119 92.48988281 145.77880859 93.1171875 C140.99185565 94.63797663 137.15703789 94.41623888 132.62890625 92.3125 C131.41569702 91.76517212 131.41569702 91.76517212 130.17797852 91.20678711 C129.31487061 90.80854736 128.4517627 90.41030762 127.5625 90 C100.55279916 78.0473634 71.90174068 69.76301176 42.68505859 65.40136719 C39.9808161 64.99713236 37.28170094 64.56643568 34.58203125 64.1328125 C32.80495607 63.85763496 31.02762098 63.58412938 29.25 63.3125 C28.49581787 63.19285889 27.74163574 63.07321777 26.96459961 62.94995117 C17.95872164 61.64528621 9.20025644 61.48422402 0 61 C0 40.87 0 20.74 0 0 Z " fill="#FBFDFD" transform="translate(110,275)"/>
<path d="M0 0 C3.63 0.66 7.26 1.32 11 2 C11 36.65 11 71.3 11 107 C5.06 107.495 5.06 107.495 -1 108 C-2.47576116 105.04847768 -2.13872893 102.06120416 -2.12939453 98.82592773 C-2.13114685 98.08550735 -2.13289917 97.34508698 -2.13470459 96.58222961 C-2.13912842 94.11599422 -2.13617642 91.64982998 -2.1328125 89.18359375 C-2.13348702 87.45272305 -2.13445829 85.72185244 -2.13571167 83.99098206 C-2.13719067 80.34155384 -2.13503365 76.69215 -2.13037109 73.04272461 C-2.12477006 68.44157594 -2.12798649 63.84048629 -2.13380814 59.23933983 C-2.16863955 26.90166052 -2.16863955 26.90166052 -1.5546875 10.97265625 C-1.51594513 9.94780624 -1.47720276 8.92295624 -1.43728638 7.86705017 C-1.13126867 1.13126867 -1.13126867 1.13126867 0 0 Z " fill="#FDFEFD" transform="translate(125,118)"/>
<path d="M0 0 C0 34.98 0 69.96 0 106 C-3.95402055 106.79080411 -7.03353791 107.18029373 -11 107 C-12 106 -12 106 -12.12304783 104.23712826 C-12.12212604 103.46374394 -12.12120424 102.69035963 -12.12025452 101.89353943 C-12.12162918 101.00867859 -12.12300385 100.12381775 -12.12442017 99.21214294 C-12.12082489 98.23391068 -12.11722961 97.25567841 -12.11352539 96.24780273 C-12.11367142 95.2235318 -12.11381744 94.19926086 -12.1139679 93.14395142 C-12.11326828 89.74047771 -12.10547363 86.33705796 -12.09765625 82.93359375 C-12.09579224 80.58089732 -12.09436826 78.2282005 -12.09336853 75.87550354 C-12.08954199 69.66943295 -12.07971055 63.4633856 -12.06866455 57.25732422 C-12.05845334 50.93001622 -12.05387154 44.60270448 -12.04882812 38.27539062 C-12.0380884 25.85025018 -12.02101036 13.42512702 -12 1 C-10.56496445 0.63597631 -9.12683494 0.28413409 -7.6875 -0.0625 C-6.88699219 -0.25972656 -6.08648437 -0.45695312 -5.26171875 -0.66015625 C-3 -1 -3 -1 0 0 Z " fill="#FDFEFE" transform="translate(377,119)"/>
<path d="M0 0 C5.04838399 -0.91036433 5.04838399 -0.91036433 8 0 C10.23268264 2.40149523 11.61704003 5.04414565 13 8 C13.33 8.66 13.66 9.32 14 10 C14.3403125 9.278125 14.680625 8.55625 15.03125 7.8125 C16.51837413 4.96481549 17.93330262 2.46447177 20 0 C23.06058568 -0.9324365 24.77170532 -0.55660253 28 0 C29.42336877 2.84673755 29.00758837 5.14615347 28.87890625 8.3203125 C28.83056641 9.57714844 28.78222656 10.83398438 28.73242188 12.12890625 C28.67634766 13.44761719 28.62027344 14.76632813 28.5625 16.125 C28.50927587 17.46482438 28.45653549 18.80466808 28.40429688 20.14453125 C28.27429992 23.42990887 28.13932314 26.71500678 28 30 C25.36 30 22.72 30 20 30 C19.67 26.37 19.34 22.74 19 19 C18.01 20.32 17.02 21.64 16 23 C14.02 22.67 12.04 22.34 10 22 C9.67 20.68 9.34 19.36 9 18 C8.67 21.96 8.34 25.92 8 30 C5.36 30 2.72 30 0 30 C-0.392954 25.56389687 -0.76129164 21.12608902 -1.125 16.6875 C-1.23714844 15.42486328 -1.34929687 14.16222656 -1.46484375 12.86132812 C-1.56152344 11.65283203 -1.65820312 10.44433594 -1.7578125 9.19921875 C-1.8520752 8.08377686 -1.94633789 6.96833496 -2.04345703 5.8190918 C-2 3 -2 3 0 0 Z " fill="#FBFDFD" transform="translate(223,234)"/>
<path d="M0 0 C0.85142578 -0.03738281 1.70285156 -0.07476562 2.58007812 -0.11328125 C6.84401479 -0.17264 9.93288095 -0.03537642 13.41796875 2.58203125 C15.8125 5.375 15.8125 5.375 16.3203125 7.91015625 C15.27968886 14.780396 15.27968886 14.780396 12.75 18 C12.110625 18.45375 11.47125 18.9075 10.8125 19.375 C12.07006667 22.85749231 13.5856892 25.43965849 15.8125 28.375 C15.8125 29.035 15.8125 29.695 15.8125 30.375 C12.65383212 30.94356022 9.94706821 31.14587915 6.8125 30.375 C3.666344 27.17058185 1.80333292 23.35666584 -0.1875 19.375 C-0.5175 23.005 -0.8475 26.635 -1.1875 30.375 C-7.33984375 30.47265625 -7.33984375 30.47265625 -9.1875 30.375 C-11.01784055 28.54465945 -10.31792797 25.64288008 -10.3203125 23.1875 C-10.32160156 21.93195313 -10.32289063 20.67640625 -10.32421875 19.3828125 C-10.32212402 18.72571289 -10.3200293 18.06861328 -10.31787109 17.39160156 C-10.31252234 15.38338665 -10.31781691 13.37539541 -10.32421875 11.3671875 C-10.32292969 10.11164063 -10.32164062 8.85609375 -10.3203125 7.5625 C-10.31862061 5.82033203 -10.31862061 5.82033203 -10.31689453 4.04296875 C-10.04330439 -1.59815018 -4.54632214 0.07403337 0 0 Z M-1.1875 8.375 C-1.1875 10.025 -1.1875 11.675 -1.1875 13.375 C0.94189828 14.72526777 0.94189828 14.72526777 3.9375 13.4375 C5.360625 12.9115625 5.360625 12.9115625 6.8125 12.375 C6.4825 11.055 6.1525 9.735 5.8125 8.375 C3.5025 8.375 1.1925 8.375 -1.1875 8.375 Z " fill="#FBFDFD" transform="translate(294.1875,233.625)"/>
<path d="M0 0 C1.31355469 -0.02578125 2.62710938 -0.0515625 3.98046875 -0.078125 C8.02632925 0.26830954 10.38728683 1.11751216 13.8125 3.25 C17.8771228 8.53400964 17.4498374 14.88535664 16.8125 21.25 C15.61584407 24.83996779 14.70676565 26.51642271 11.8125 28.890625 C7.51850194 30.83634287 3.65171645 30.57278482 -1 30.4375 C-2.32547852 30.41719727 -2.32547852 30.41719727 -3.67773438 30.39648438 C-5.84792023 30.36129217 -8.01779033 30.30748985 -10.1875 30.25 C-10.3125 24.5 -10.3125 24.5 -9.1875 22.25 C-9.04744483 20.66878432 -8.96194016 19.08252278 -8.90625 17.49609375 C-8.86886719 16.55958984 -8.83148438 15.62308594 -8.79296875 14.65820312 C-8.72251774 12.67383304 -8.65220578 10.68945801 -8.58203125 8.70507812 C-8.54464844 7.76986328 -8.50726563 6.83464844 -8.46875 5.87109375 C-8.43845703 5.0092749 -8.40816406 4.14745605 -8.37695312 3.25952148 C-7.94781183 -1.29236257 -3.6307406 0.02753168 0 0 Z M0.8125 8.25 C0.8125 13.2 0.8125 18.15 0.8125 23.25 C4.2775 22.755 4.2775 22.755 7.8125 22.25 C7.83935938 20.10423363 7.85883088 17.95837355 7.875 15.8125 C7.88660156 14.61753906 7.89820313 13.42257813 7.91015625 12.19140625 C8.15151792 9.36126659 8.15151792 9.36126659 6.8125 8.25 C4.8325 8.25 2.8525 8.25 0.8125 8.25 Z " fill="#FBFDFD" transform="translate(173.1875,233.75)"/>
<path d="M0 0 C3.5 0.125 3.5 0.125 4.5 1.125 C4.57205511 2.81108966 4.58386068 4.50000659 4.5625 6.1875 C4.55347656 7.10660156 4.54445313 8.02570313 4.53515625 8.97265625 C4.52355469 9.68292969 4.51195312 10.39320313 4.5 11.125 C7.14 11.125 9.78 11.125 12.5 11.125 C12.48839844 10.41472656 12.47679687 9.70445312 12.46484375 8.97265625 C12.45582031 8.05355469 12.44679688 7.13445312 12.4375 6.1875 C12.42589844 5.27097656 12.41429687 4.35445312 12.40234375 3.41015625 C12.5 1.125 12.5 1.125 13.5 0.125 C15.83297433 0.08407063 18.16705225 0.08258277 20.5 0.125 C21.57268883 3.3430665 21.62923759 5.68793914 21.6328125 9.0703125 C21.63474609 10.80861328 21.63474609 10.80861328 21.63671875 12.58203125 C21.63285156 13.79246094 21.62898438 15.00289062 21.625 16.25 C21.63080078 18.07724609 21.63080078 18.07724609 21.63671875 19.94140625 C21.63542969 21.09769531 21.63414062 22.25398438 21.6328125 23.4453125 C21.63168457 24.51023926 21.63055664 25.57516602 21.62939453 26.67236328 C21.5 29.125 21.5 29.125 20.5 30.125 C17.82941149 30.26615161 15.17567762 30.16747107 12.5 30.125 C12.5 26.495 12.5 22.865 12.5 19.125 C9.86 19.125 7.22 19.125 4.5 19.125 C4.5 22.755 4.5 26.385 4.5 30.125 C-2.25 31.25 -2.25 31.25 -4.5 30.125 C-4.52465746 26.0132744 -4.54283959 21.90157722 -4.55493164 17.78979492 C-4.5599708 16.39004772 -4.56680216 14.9903058 -4.57543945 13.59057617 C-4.5875232 11.58254223 -4.59269807 9.57447043 -4.59765625 7.56640625 C-4.60289307 6.35670166 -4.60812988 5.14699707 -4.61352539 3.90063477 C-4.44480133 -0.22457777 -4.24733448 0.15169052 0 0 Z " fill="#FBFDFD" transform="translate(345.5,233.875)"/>
<path d="M0 0 C0.91644287 0.00523682 1.83288574 0.01047363 2.77709961 0.01586914 C3.76645508 0.0190918 4.75581055 0.02231445 5.77514648 0.02563477 C6.81606445 0.03401367 7.85698242 0.04239258 8.92944336 0.05102539 C10.49662109 0.05779297 10.49662109 0.05779297 12.09545898 0.06469727 C14.68600996 0.07652627 17.27644895 0.0930085 19.86694336 0.11352539 C20.11694336 6.73852539 20.11694336 6.73852539 17.86694336 10.11352539 C15.26538086 10.40649414 15.26538086 10.40649414 12.24194336 10.30102539 C10.73760742 10.26041992 10.73760742 10.26041992 9.20288086 10.21899414 C8.43202148 10.18418945 7.66116211 10.14938477 6.86694336 10.11352539 C6.53694336 9.45352539 6.20694336 8.79352539 5.86694336 8.11352539 C5.86694336 9.10352539 5.86694336 10.09352539 5.86694336 11.11352539 C9.82694336 11.11352539 13.78694336 11.11352539 17.86694336 11.11352539 C17.86694336 13.42352539 17.86694336 15.73352539 17.86694336 18.11352539 C13.57694336 18.11352539 9.28694336 18.11352539 4.86694336 18.11352539 C4.86694336 19.76352539 4.86694336 21.41352539 4.86694336 23.11352539 C6.47375977 23.09612305 6.47375977 23.09612305 8.11303711 23.07836914 C9.51017079 23.0689924 10.90730635 23.05989208 12.30444336 23.05102539 C13.01149414 23.04264648 13.71854492 23.03426758 14.44702148 23.02563477 C16.25387895 23.01698951 18.06081939 23.06132528 19.86694336 23.11352539 C20.86694336 24.11352539 20.86694336 24.11352539 20.99194336 26.61352539 C20.86694336 29.11352539 20.86694336 29.11352539 19.86694336 30.11352539 C18.15921978 30.20066371 16.44795687 30.22052546 14.73803711 30.21118164 C13.18632812 30.20634766 13.18632812 30.20634766 11.60327148 30.20141602 C10.5146582 30.19303711 9.42604492 30.1846582 8.30444336 30.17602539 C6.66572266 30.16925781 6.66572266 30.16925781 4.99389648 30.16235352 C2.28485841 30.15052366 -0.42407263 30.13404082 -3.13305664 30.11352539 C-3.1577141 26.00179979 -3.17589623 21.89010261 -3.18798828 17.77832031 C-3.19302744 16.37857311 -3.19985881 14.97883119 -3.20849609 13.57910156 C-3.22057984 11.57106762 -3.22575471 9.56299582 -3.23071289 7.55493164 C-3.23594971 6.34522705 -3.24118652 5.13552246 -3.24658203 3.88916016 C-3.09424828 0.16468186 -3.09424828 0.16468186 0 0 Z " fill="#FAFDFD" transform="translate(141.133056640625,233.886474609375)"/>
<path d="M0 0 C2.26447076 1.46943866 3.83395771 2.73822792 5.05078125 5.171875 C5.3372118 7.61666101 5.56292111 10.03167122 5.73828125 12.484375 C5.79822266 13.14888672 5.85816406 13.81339844 5.91992188 14.49804688 C6.21544338 18.5908173 6.01802281 21.54559306 4.05078125 25.171875 C0.34491622 28.59267349 -2.23346436 30.07655531 -7.32421875 30.359375 C-10.82529313 30.17828495 -12.95707579 29.96716078 -15.94921875 28.171875 C-17.26171875 25.546875 -17.26171875 25.546875 -17.94921875 23.171875 C-18.60921875 23.171875 -19.26921875 23.171875 -19.94921875 23.171875 C-22.17845652 18.84453109 -21.87392428 15.88787318 -20.94921875 11.171875 C-21.27921875 11.171875 -21.60921875 11.171875 -21.94921875 11.171875 C-21.94921875 9.191875 -21.94921875 7.211875 -21.94921875 5.171875 C-21.28921875 5.831875 -20.62921875 6.491875 -19.94921875 7.171875 C-19.37171875 6.223125 -18.79421875 5.274375 -18.19921875 4.296875 C-13.97394151 -1.57156561 -6.70800863 -2.84989545 0 0 Z M-10.94921875 7.171875 C-10.97607287 9.48431292 -10.99554716 11.7968377 -11.01171875 14.109375 C-11.02332031 15.39714844 -11.03492188 16.68492187 -11.046875 18.01171875 C-11.31454424 21.03485903 -11.31454424 21.03485903 -9.94921875 22.171875 C-6.94921875 22.33854167 -6.94921875 22.33854167 -3.94921875 22.171875 C-2.58389326 21.03485903 -2.58389326 21.03485903 -2.8515625 18.01171875 C-2.86316406 16.72394531 -2.87476563 15.43617188 -2.88671875 14.109375 C-2.89574219 12.81902344 -2.90476562 11.52867187 -2.9140625 10.19921875 C-2.92566406 9.20019531 -2.93726563 8.20117188 -2.94921875 7.171875 C-7.0514546 6.15647388 -7.0514546 6.15647388 -10.94921875 7.171875 Z " fill="#FCFEFD" transform="translate(274.94921875,234.828125)"/>
<path d="M0 0 C3.5 0.125 3.5 0.125 4.5 1.125 C4.65686249 2.68448542 4.75076639 4.25042668 4.81640625 5.81640625 C4.87924805 7.23276367 4.87924805 7.23276367 4.94335938 8.67773438 C4.98267578 9.67095703 5.02199219 10.66417969 5.0625 11.6875 C5.10568359 12.68458984 5.14886719 13.68167969 5.19335938 14.70898438 C5.29980298 17.1808415 5.40181928 19.6528031 5.5 22.125 C7.48 22.455 9.46 22.785 11.5 23.125 C11.48839844 22.21878906 11.47679687 21.31257813 11.46484375 20.37890625 C11.41411085 13.52996536 11.56398731 6.911092 12.5 0.125 C15.14 0.125 17.78 0.125 20.5 0.125 C22.02999982 8.53999899 22.99629212 18.13347516 19.5 26.125 C16.33178817 29.66594263 13.31161023 30.85466789 8.5546875 31.22265625 C3.91427485 31.00210432 0.61401469 29.01049885 -2.9375 26.1875 C-5.40399135 21.35317695 -4.8057039 16.44934293 -4.5 11.125 C-5.16 11.125 -5.82 11.125 -6.5 11.125 C-6.5 10.135 -6.5 9.145 -6.5 8.125 C-5.84 8.125 -5.18 8.125 -4.5 8.125 C-4.520625 6.990625 -4.54125 5.85625 -4.5625 4.6875 C-4.4830721 0.16010972 -4.4830721 0.16010972 0 0 Z " fill="#FBFDFD" transform="translate(197.5,233.875)"/>
<path d="M0 0 C1.65 0 3.3 0 5 0 C6.83357444 1.83357444 6.11999967 4.39635695 6.12442017 6.8359375 C6.12082489 7.67390869 6.11722961 8.51187988 6.11352539 9.37524414 C6.11367142 10.25321152 6.11381744 11.13117889 6.1139679 12.03575134 C6.11326844 14.95224435 6.10547455 17.86867433 6.09765625 20.78515625 C6.09579218 22.80154892 6.09436823 24.81794204 6.09336853 26.83433533 C6.08954244 32.15265138 6.07971139 37.4709403 6.06866455 42.78924561 C6.05845238 48.21170688 6.05387133 53.63417252 6.04882812 59.05664062 C6.0380892 69.70443903 6.02101169 80.35221726 6 91 C4.02 91 2.04 91 0 91 C0 60.97 0 30.94 0 0 Z " fill="#FBFEFE" transform="translate(110,134)"/>
<path d="M0 0 C3.31104792 1.26216015 3.85380484 1.97007743 6 5 C7.34413424 9.33895964 7.52269113 12.7070272 5.8125 16.9375 C3.37470088 19.71154727 1.34953432 20.88828358 -2.359375 21.1953125 C-4.57291667 21.13020833 -6.78645833 21.06510417 -9 21 C-9 23.97 -9 26.94 -9 30 C-11.64 30 -14.28 30 -17 30 C-17.21690267 25.90733909 -17.41378687 21.81425802 -17.59204102 17.71972656 C-17.65552913 16.32656029 -17.72451436 14.93363335 -17.79907227 13.54101562 C-17.90519436 11.54107702 -17.99001904 9.54004394 -18.07421875 7.5390625 C-18.13182373 6.33459473 -18.18942871 5.13012695 -18.2487793 3.88916016 C-18.16668213 2.9357373 -18.08458496 1.98231445 -18 1 C-12.71195674 -2.52536217 -6.05228137 -0.98374003 0 0 Z M-9 8 C-9 9.98 -9 11.96 -9 14 C-6.69 14 -4.38 14 -2 14 C-1.61781233 12.34385343 -1.28604898 10.67542976 -1 9 C-2.18424326 7.58422523 -2.18424326 7.58422523 -5.5625 7.9375 C-7.2640625 7.9684375 -7.2640625 7.9684375 -9 8 Z " fill="#FBFDFD" transform="translate(331,234)"/>
<path d="M0 0 C1.65 0 3.3 0 5 0 C5 30.03 5 60.06 5 91 C3.35 91 1.7 91 0 91 C0 60.97 0 30.94 0 0 Z " fill="#FCFEFE" transform="translate(385,134)"/>
<path d="M0 0 C0.33 0 0.66 0 1 0 C1 3.96 1 7.92 1 12 C0.67 12 0.34 12 0 12 C0 8.04 0 4.08 0 0 Z " fill="#FFFFFF" transform="translate(383,179)"/>
<path d="M0 0 C1.32 0 2.64 0 4 0 C3.67 0.99 3.34 1.98 3 3 C1.68 2.34 0.36 1.68 -1 1 C-0.67 0.67 -0.34 0.34 0 0 Z " fill="#E8F1FD" transform="translate(155,253)"/>
<path d="M0 0 C1 4 1 4 1 4 Z " fill="#FFFFFF" transform="translate(311,241)"/>
<path d="" fill="#FFFFFF" transform="translate(0,0)"/>
<path d="" fill="#FFFFFF" transform="translate(0,0)"/>
</svg>
