<?xml version="1.0" encoding="UTF-8"?>
<svg version="1.1" xmlns="http://www.w3.org/2000/svg" width="500" height="500">
<path d="M0 0 C165 0 330 0 500 0 C500 165 500 330 500 500 C335 500 170 500 0 500 C0 335 0 170 0 0 Z " fill="#0F1B2A" transform="translate(0,0)"/>
<path d="M0 0 C0 39.6 0 79.2 0 120 C-33.33 120 -66.66 120 -101 120 C-101.309375 106.490625 -101.61875 92.98125 -101.9375 79.0625 C-102.07406006 74.81125244 -102.21062012 70.56000488 -102.35131836 66.17993164 C-102.41906738 60.95202637 -102.41906738 60.95202637 -102.43165588 58.49754333 C-102.45455989 56.79817133 -102.50706288 55.09903042 -102.58363342 53.40122986 C-103.18153027 39.43482458 -103.18153027 39.43482458 -99.52537155 35.35415459 C-95.40466471 32.06022851 -90.8386717 30.02703654 -86 28 C-84.55891584 27.23376007 -83.12405449 26.45534224 -81.703125 25.65234375 C-77.8211222 23.72451657 -73.92943933 21.82915943 -70 20 C-69.28392578 19.66613281 -68.56785156 19.33226563 -67.83007812 18.98828125 C-47.8570705 9.81861548 -22.20122783 0 0 0 Z " fill="#FEFEFE" transform="translate(356,105)"/>
<path d="M0 0 C15.76851012 1.12632215 15.76851012 1.12632215 21.26171875 2.6015625 C23.07845093 3.08375244 23.07845093 3.08375244 24.93188477 3.57568359 C26.17123779 3.92195801 27.41059082 4.26823242 28.6875 4.625 C29.33919159 4.80395813 29.99088318 4.98291626 30.662323 5.16729736 C53.2339699 11.36972506 83.94768723 19.94768723 101 37 C101.09506198 39.55593815 101.12555454 42.08464306 101.11352539 44.64086914 C101.11364593 45.4537889 101.11376646 46.26670866 101.11389065 47.10426235 C101.11314147 49.74792104 101.10551303 52.3915101 101.09765625 55.03515625 C101.09618685 56.66239386 101.09516613 58.28963194 101.09460449 59.91687012 C101.08935143 65.9654206 101.07539035 72.01396097 101.0625 78.0625 C101.041875 91.571875 101.02125 105.08125 101 119 C67.67 119 34.34 119 0 119 C0 79.73 0 40.46 0 0 Z " fill="#FEFEFE" transform="translate(145,106)"/>
<path d="M0 0 C33.33 0 66.66 0 101 0 C101 18.48 101 36.96 101 56 C97.77276737 54.70910695 94.77415813 53.44311999 91.69140625 51.8984375 C73.42793006 42.88092483 55.00878483 35.99218379 35.12988281 31.49853516 C33.15551682 31.03640135 31.1976212 30.5053763 29.2421875 29.96875 C23.58672847 28.54259077 17.78501359 28.02475506 12 27.375 C8.04 26.92125 4.08 26.4675 0 26 C0 17.42 0 8.84 0 0 Z " fill="#FBFBFB" transform="translate(145,275)"/>
<path d="M0 0 C33.33 0 66.66 0 101 0 C101 8.58 101 17.16 101 26 C97.060625 26.4125 93.12125 26.825 89.0625 27.25 C61.55252286 30.37211003 35.95521691 39.12894196 11 51 C7.37 52.65 3.74 54.3 0 56 C0 37.52 0 19.04 0 0 Z " fill="#FCFCFC" transform="translate(255,275)"/>
<path d="M0 0 C3.3 0 6.6 0 10 0 C10.01981934 0.95890137 10.03963867 1.91780273 10.06005859 2.90576172 C10.13604145 6.45811553 10.2247693 10.01005576 10.31738281 13.56201172 C10.35570301 15.10034021 10.39055056 16.63875925 10.421875 18.17724609 C10.46746059 20.38672276 10.5254634 22.59557448 10.5859375 24.8046875 C10.59748871 25.49432587 10.60903992 26.18396423 10.62094116 26.89450073 C10.64951022 30.8920154 10.64951022 30.8920154 13 34 C15.69307786 34.46210518 15.69307786 34.46210518 18.87890625 34.640625 C20.09755371 34.73811035 21.31620117 34.8355957 22.57177734 34.93603516 C23.22184753 34.98624817 23.87191772 35.03646118 24.54168701 35.0881958 C57.66568282 37.7403965 91.26038534 48.00659187 119.63647461 65.63818359 C122.71196684 67.41022116 124.49226953 67.44627614 128 67 C130.99827945 65.67877757 130.99827945 65.67877757 134.125 63.75 C164.10801336 46.86292608 196.85487374 36.77736287 231.171875 34.77026367 C232.03941406 34.7107251 232.90695312 34.65118652 233.80078125 34.58984375 C234.56559814 34.54722412 235.33041504 34.50460449 236.1184082 34.46069336 C238.40459315 34.12572639 238.40459315 34.12572639 240 31 C240.37032217 27.70229658 240.37032217 27.70229658 240.4140625 23.92578125 C240.43342865 23.2419487 240.4527948 22.55811615 240.4727478 21.8535614 C240.53243997 19.67333375 240.57888631 17.49305298 240.625 15.3125 C240.66318943 13.8326595 240.70224174 12.352841 240.7421875 10.87304688 C240.83813202 7.2488995 240.92220151 3.62458743 241 0 C244.3 0 247.6 0 251 0 C251 14.19 251 28.38 251 43 C246.978125 43.433125 242.95625 43.86625 238.8125 44.3125 C229.81675113 45.30142355 220.83654813 46.36106002 211.875 47.625 C210.54432495 47.80929565 210.54432495 47.80929565 209.18676758 47.99731445 C205.27002594 48.24170667 205.27002594 48.24170667 202 50 C199.77863899 50.46213334 197.54891481 50.88419526 195.31640625 51.2890625 C187.65433896 52.75487512 180.33257216 54.87936388 172.9375 57.375 C172.31101562 57.58299225 171.68453125 57.7909845 171.0390625 58.00527954 C159.25942164 61.93090251 147.91723672 66.71814939 136.67163086 71.97216797 C135.49093018 72.51115723 134.31022949 73.05014648 133.09375 73.60546875 C132.05927734 74.09168701 131.02480469 74.57790527 129.95898438 75.07885742 C125.1421554 76.57835377 121.26018802 75.33699607 116.79296875 73.29296875 C116.04080078 72.95330078 115.28863281 72.61363281 114.51367188 72.26367188 C113.3622168 71.7309668 113.3622168 71.7309668 112.1875 71.1875 C111.43146484 70.84396484 110.67542969 70.50042969 109.89648438 70.14648438 C108.36894351 69.45238439 106.84224875 68.75641933 105.31640625 68.05859375 C102.94622588 66.97542532 100.57506407 65.8949122 98.19921875 64.82421875 C97.49756592 64.50670654 96.79591309 64.18919434 96.07299805 63.86206055 C93.14419665 62.6441124 90.15403565 61.77509849 87.10546875 60.91015625 C84.63258465 60.18539902 82.18736258 59.42034644 79.73828125 58.62109375 C70.50891669 55.61698482 61.30798492 52.96659183 51.83203125 50.859375 C49.36592429 50.30632349 46.91140966 49.69707741 44.4765625 49.01953125 C37.95782747 47.37377879 31.22443184 46.76097254 24.5625 45.9375 C23.18158647 45.76279732 21.80072659 45.58767 20.41992188 45.41210938 C13.61825419 44.55234815 6.81451468 43.7571683 0 43 C0 28.81 0 14.62 0 0 Z " fill="#F7F8F8" transform="translate(125,275)"/>
<path d="M0 0 C1.32 0 2.64 0 4 0 C4.00808685 0.60943451 4.01617371 1.21886902 4.02450562 1.84677124 C4.11036845 8.17312984 4.20986327 14.49916846 4.31738281 20.82519531 C4.35573527 23.18809651 4.39057692 25.55105734 4.421875 27.9140625 C4.46738966 31.3049048 4.52540619 34.69533424 4.5859375 38.0859375 C4.59748871 39.14743011 4.60903992 40.20892273 4.62094116 41.30258179 C4.64081085 42.28344757 4.66068054 43.26431335 4.68115234 44.27490234 C4.69447601 45.14094086 4.70779968 46.00697937 4.7215271 46.89926147 C4.81220713 49.21757642 4.81220713 49.21757642 7 51 C9.49910819 51.36778299 9.49910819 51.36778299 12.44921875 51.421875 C13.59173096 51.47432373 14.73424316 51.52677246 15.91137695 51.58081055 C17.78055786 51.66455933 17.78055786 51.66455933 19.6875 51.75 C58.11324826 53.96885368 100.48785492 64.44186025 134.0546875 83.7578125 C138.20942162 85.51007437 140.75012951 84.87291013 144.88525391 83.26855469 C147.04894541 82.34591811 149.18035804 81.36830281 151.3125 80.375 C152.92114918 79.64553269 154.53054264 78.91770477 156.140625 78.19140625 C156.95208984 77.82418457 157.76355469 77.45696289 158.59960938 77.07861328 C169.83454633 72.03020488 181.04064082 67.86551817 192.91455078 64.59277344 C194.93477721 64.01853909 196.93360535 63.39864857 198.93359375 62.7578125 C219.23874106 56.3090319 239.97308725 53.49996163 261.14233398 51.89990234 C261.85747162 51.84512726 262.57260925 51.79035217 263.30941772 51.73391724 C265.265178 51.58668653 267.22156629 51.4478682 269.17797852 51.30957031 C271.89972325 51.3088716 271.89972325 51.3088716 273 50 C273.12263388 48.43551617 273.17779522 46.86567228 273.20532227 45.29663086 C273.22526749 44.29566879 273.24521271 43.29470673 273.26576233 42.26341248 C273.28247482 41.1748848 273.29918732 40.08635712 273.31640625 38.96484375 C273.3475779 37.3022628 273.3475779 37.3022628 273.37937927 35.60609436 C273.44499623 32.04996192 273.50381596 28.49375297 273.5625 24.9375 C273.60567368 22.53319507 273.64928758 20.12889801 273.69335938 17.72460938 C273.80068992 11.81648815 273.90243331 5.90829009 274 0 C275.65 0 277.3 0 279 0 C279 19.8 279 39.6 279 60 C273.06 60.33 267.12 60.66 261 61 C259.515 61.495 259.515 61.495 258 62 C256.22126222 62.19274897 254.4419293 62.38138956 252.66015625 62.54370117 C217.3260898 65.82328005 182.88431319 76.31847045 150.17163086 89.7121582 C149.16495361 90.12425537 148.15827637 90.53635254 147.12109375 90.9609375 C146.2283374 91.33009277 145.33558105 91.69924805 144.41577148 92.07958984 C138.7463195 94.23965392 138.7463195 94.23965392 135.3359375 93.14453125 C134.35882813 92.70496094 133.38171875 92.26539063 132.375 91.8125 C130.76431641 91.10673828 130.76431641 91.10673828 129.12109375 90.38671875 C128.09113281 89.92910156 127.06117188 89.47148437 126 89 C122.6873789 87.61190668 119.34882414 86.29816442 116 85 C115.37335449 84.75523926 114.74670898 84.51047852 114.10107422 84.25830078 C93.76732189 76.36723893 73.05213936 70.59459523 51.63330078 66.50683594 C49.36362026 66.06998662 47.10173531 65.60788239 44.83984375 65.1328125 C30.07056468 62.2180209 14.97207006 61.31553754 0 60 C0 40.2 0 20.4 0 0 Z " fill="#F4F5F5" transform="translate(111,275)"/>
<path d="M0 0 C0 34.98 0 69.96 0 106 C-3.63 106 -7.26 106 -11 106 C-11 71.68 -11 37.36 -11 2 C-6 0 -6 0 0 0 Z " fill="#F2F3F4" transform="translate(376,119)"/>
<path d="M0 0 C3.3 0.33 6.6 0.66 10 1 C10 35.65 10 70.3 10 106 C6.7 106 3.4 106 0 106 C0 71.02 0 36.04 0 0 Z " fill="#FEFEFD" transform="translate(125,119)"/>
<path d="M0 0 C3.75212276 2.01502889 5.63644095 3.45466142 8 7 C8.27528114 9.65718741 8.41580858 12.15409569 8.4375 14.8125 C8.48680664 15.86147461 8.48680664 15.86147461 8.53710938 16.93164062 C8.57774667 20.88084663 8.15575933 23.31309315 5.66015625 26.44921875 C1.78446291 30.16555906 -1.55951452 30.39296402 -6.70703125 30.359375 C-10.59755636 29.74961638 -12.32223635 27.81165184 -15 25 C-16.55743688 21.88512623 -16.26686231 18.60424191 -16.3125 15.1875 C-16.34150391 14.47529297 -16.37050781 13.76308594 -16.40039062 13.02929688 C-16.44536715 9.28932554 -16.15120564 7.2319105 -14.08984375 4.0703125 C-9.91373814 -0.06676408 -5.84788683 -0.93341271 0 0 Z " fill="#F5F5F6" transform="translate(272,234)"/>
<path d="M0 0 C2.51625 -0.0825 5.0325 -0.165 7.625 -0.25 C8.79603271 -0.30462402 8.79603271 -0.30462402 9.99072266 -0.36035156 C15.1007707 -0.4407839 17.951248 0.63642141 22 4 C23.55743688 7.11487377 23.26686231 10.39575809 23.3125 13.8125 C23.34150391 14.52470703 23.37050781 15.23691406 23.40039062 15.97070312 C23.44359451 19.56327262 23.13323216 21.77469435 21.29296875 24.88671875 C14.79971615 30.87113043 9.18518115 29 0 29 C0 19.43 0 9.86 0 0 Z " fill="#F6F7F7" transform="translate(166,235)"/>
<path d="M0 0 C2.64 0 5.28 0 8 0 C8.83848804 1.45537568 9.67063934 2.91440373 10.5 4.375 C10.9640625 5.18710938 11.428125 5.99921875 11.90625 6.8359375 C13 9 13 9 13 11 C13.66 11 14.32 11 15 11 C15.268125 10.29875 15.53625 9.5975 15.8125 8.875 C17.0681449 5.8350176 18.50235123 2.9272226 20 0 C22.64 0 25.28 0 28 0 C28 9.24 28 18.48 28 28 C25.69 28 23.38 28 21 28 C20.505 21.565 20.505 21.565 20 15 C19.01 16.98 18.02 18.96 17 21 C14.6875 21.3125 14.6875 21.3125 12 21 C10.33203125 18.48046875 10.33203125 18.48046875 9 16 C8.93941406 16.85464844 8.87882813 17.70929688 8.81640625 18.58984375 C8.73261719 19.69457031 8.64882812 20.79929688 8.5625 21.9375 C8.48128906 23.03964844 8.40007812 24.14179688 8.31640625 25.27734375 C8 28 8 28 7 29 C4 29.125 4 29.125 1 29 C0 28 0 28 -0.11352539 25.31616211 C-0.10828857 24.14835205 -0.10305176 22.98054199 -0.09765625 21.77734375 C-0.09443359 20.51728516 -0.09121094 19.25722656 -0.08789062 17.95898438 C-0.07953403 16.61848891 -0.07106907 15.27799412 -0.0625 13.9375 C-0.0574866 12.59310058 -0.05292342 11.2486994 -0.04882812 9.90429688 C-0.03699488 6.60282059 -0.02050971 3.30143197 0 0 Z " fill="#F1F2F3" transform="translate(223,235)"/>
<path d="M0 0 C3.06398451 -0.13530844 6.12197126 -0.2342407 9.1875 -0.3125 C10.05181641 -0.35439453 10.91613281 -0.39628906 11.80664062 -0.43945312 C16.31463251 -0.52581312 18.34808003 -0.482106 22.07421875 2.2734375 C24.17874588 5.25307226 24.716014 7.33868746 24.5078125 10.99609375 C23.61450664 14.52121611 21.53938401 16.46061599 19 19 C19.3609375 19.47050781 19.721875 19.94101563 20.09375 20.42578125 C20.78984375 21.35970703 20.78984375 21.35970703 21.5 22.3125 C21.9640625 22.92738281 22.428125 23.54226563 22.90625 24.17578125 C24 26 24 26 24 29 C20.875 29.5 20.875 29.5 17 29 C13.67551225 26.23079545 11.3218971 23.00592718 10.62890625 18.6875 C10.625 16.5 10.625 16.5 11 13 C12.98 12.67 14.96 12.34 17 12 C16.34 10.35 15.68 8.7 15 7 C12.69 6.67 10.38 6.34 8 6 C8.00523682 6.6612085 8.01047363 7.32241699 8.01586914 8.00366211 C8.03657656 10.98159851 8.04964012 13.95951982 8.0625 16.9375 C8.07087891 17.97841797 8.07925781 19.01933594 8.08789062 20.09179688 C8.09111328 21.08115234 8.09433594 22.07050781 8.09765625 23.08984375 C8.10289307 24.00628662 8.10812988 24.92272949 8.11352539 25.86694336 C8 28 8 28 7 29 C4 29.125 4 29.125 1 29 C0 28 0 28 -0.11352539 25.31616211 C-0.10828857 24.14835205 -0.10305176 22.98054199 -0.09765625 21.77734375 C-0.09443359 20.51728516 -0.09121094 19.25722656 -0.08789062 17.95898438 C-0.07953403 16.61848891 -0.07106907 15.27799412 -0.0625 13.9375 C-0.0574866 12.59310058 -0.05292342 11.2486994 -0.04882812 9.90429688 C-0.03699488 6.60282059 -0.02050971 3.30143197 0 0 Z " fill="#EEEFEF" transform="translate(285,235)"/>
<path d="M0 0 C2.71003427 -0.1358035 5.41318941 -0.23444624 8.125 -0.3125 C8.88554687 -0.35439453 9.64609375 -0.39628906 10.4296875 -0.43945312 C14.50287795 -0.5272374 17.22028425 -0.28974523 20.515625 2.23828125 C23.79074889 5.87902431 23.79074889 5.87902431 23.625 9.5 C23.33590475 13.73066215 22.18799912 16.08525795 19 19 C16.11788698 19.96070434 14.30149956 20.10581883 11.3125 20.0625 C9.889375 20.041875 8.46625 20.02125 7 20 C7 22.97 7 25.94 7 29 C5.00045254 29.04254356 2.99958364 29.04080783 1 29 C0 28 0 28 -0.11352539 25.31616211 C-0.10828857 24.14835205 -0.10305176 22.98054199 -0.09765625 21.77734375 C-0.09443359 20.51728516 -0.09121094 19.25722656 -0.08789062 17.95898438 C-0.07953403 16.61848891 -0.07106907 15.27799412 -0.0625 13.9375 C-0.0574866 12.59310058 -0.05292342 11.2486994 -0.04882812 9.90429688 C-0.03699488 6.60282059 -0.02050971 3.30143197 0 0 Z " fill="#F3F4F4" transform="translate(314,235)"/>
<path d="M0 0 C2.31 0 4.62 0 7 0 C7 3.63 7 7.26 7 11 C10.3 11 13.6 11 17 11 C17 7.37 17 3.74 17 0 C19.31 0 21.62 0 24 0 C24 9.57 24 19.14 24 29 C21.69 29 19.38 29 17 29 C17 25.04 17 21.08 17 17 C13.7 17 10.4 17 7 17 C7 20.96 7 24.92 7 29 C4.69 29 2.38 29 0 29 C0 19.43 0 9.86 0 0 Z " fill="#F6F7F7" transform="translate(342,235)"/>
<path d="M0 0 C6.93 0 13.86 0 21 0 C21 1.98 21 3.96 21 6 C16.38 6 11.76 6 7 6 C7 7.32 7 8.64 7 10 C7.85464844 9.98839844 8.70929688 9.97679687 9.58984375 9.96484375 C10.69457031 9.95582031 11.79929688 9.94679687 12.9375 9.9375 C14.03964844 9.92589844 15.14179688 9.91429687 16.27734375 9.90234375 C19 10 19 10 20 11 C20 12.65 20 14.3 20 16 C15.38 16 10.76 16 6 16 C6 17.98 6 19.96 6 22 C11.28 22 16.56 22 22 22 C22 24.31 22 26.62 22 29 C14.74 29 7.48 29 0 29 C0 19.43 0 9.86 0 0 Z " fill="#F1F2F3" transform="translate(139,235)"/>
<path d="M0 0 C2.31 0 4.62 0 7 0 C7.02505615 0.59538574 7.0501123 1.19077148 7.07592773 1.80419922 C7.19177494 4.49469136 7.31455196 7.1848234 7.4375 9.875 C7.47681641 10.81214844 7.51613281 11.74929687 7.55664062 12.71484375 C7.59853516 13.61074219 7.64042969 14.50664062 7.68359375 15.4296875 C7.72025146 16.25710449 7.75690918 17.08452148 7.79467773 17.93701172 C7.88238327 20.06179429 7.88238327 20.06179429 9 22 C10.66611905 22.042721 12.33382885 22.04063832 14 22 C15.61780157 20.38219843 15.22272147 18.54364482 15.31640625 16.30859375 C15.35830078 15.36435547 15.40019531 14.42011719 15.44335938 13.44726562 C15.50233398 11.95743164 15.50233398 11.95743164 15.5625 10.4375 C15.60568359 9.44041016 15.64886719 8.44332031 15.69335938 7.41601562 C15.79980298 4.9441585 15.90181928 2.4721969 16 0 C18.64 0 21.28 0 24 0 C24.14601614 3.54122827 24.2343056 7.08167644 24.3125 10.625 C24.35439453 11.62402344 24.39628906 12.62304688 24.43945312 13.65234375 C24.57762626 21.99800105 24.57762626 21.99800105 21.66796875 25.6484375 C17.69685158 29.14860226 14.37132742 29.33439093 9.29296875 29.29296875 C5.79524527 28.84607052 3.64134031 27.24513927 1 25 C-0.27861615 22.44276771 -0.11336609 20.63262898 -0.09765625 17.7734375 C-0.09443359 16.7421875 -0.09121094 15.7109375 -0.08789062 14.6484375 C-0.07951172 13.56820312 -0.07113281 12.48796875 -0.0625 11.375 C-0.05798828 10.28703125 -0.05347656 9.1990625 -0.04882812 8.078125 C-0.03701776 5.38536211 -0.02054778 2.69270812 0 0 Z " fill="#F0F2F2" transform="translate(194,235)"/>
<path d="M0 0 C1.65 0 3.3 0 5 0 C5 29.7 5 59.4 5 90 C3.35 90 1.7 90 0 90 C0 60.3 0 30.6 0 0 Z " fill="#DEE0E2" transform="translate(385,135)"/>
<path d="M0 0 C1.32 0 2.64 0 4 0 C4 29.7 4 59.4 4 90 C2.68 90 1.36 90 0 90 C0 60.3 0 30.6 0 0 Z " fill="#FCFDFC" transform="translate(111,135)"/>
<path d="M0 0 C3 0.25 3 0.25 5 2.25 C5.30078125 4.96484375 5.30078125 4.96484375 5.3125 8.1875 C5.32925781 9.24839844 5.34601563 10.30929688 5.36328125 11.40234375 C5 14.25 5 14.25 3.67578125 16.140625 C2 17.25 2 17.25 -1.125 17.0625 C-2.07375 16.794375 -3.0225 16.52625 -4 16.25 C-5.36271133 13.52457733 -5.16923601 11.28912726 -5.1875 8.25 C-5.20167969 7.1775 -5.21585937 6.105 -5.23046875 5 C-4.89621022 1.0115592 -3.95074486 0.32922874 0 0 Z " fill="#1C2233" transform="translate(268,240.75)"/>
<path d="M0 0 C2.31 0 4.62 0 7 0 C9 2 9 2 9.265625 4.75 C9.26046875 5.8225 9.2553125 6.895 9.25 8 C9.25515625 9.0725 9.2603125 10.145 9.265625 11.25 C9 14 9 14 7 16 C4.69 16 2.38 16 0 16 C0 10.72 0 5.44 0 0 Z " fill="#171E2F" transform="translate(173,241)"/>
<path d="M0 0 C3.375 -0.125 3.375 -0.125 7 0 C9 2 9 2 9 6 C7.02 6.33 5.04 6.66 3 7 C3 9.31 3 11.62 3 14 C2.67 14 2.34 14 2 14 C1.67 12.35 1.34 10.7 1 9 C0.67 9 0.34 9 0 9 C0 6.03 0 3.06 0 0 Z " fill="#1F283A" transform="translate(293,241)"/>
<path d="M0 0 C3.375 -0.125 3.375 -0.125 7 0 C7.66 0.66 8.32 1.32 9 2 C8.44444444 6.55555556 8.44444444 6.55555556 7 8 C4.66702567 8.04092937 2.33294775 8.04241723 0 8 C0 5.36 0 2.72 0 0 Z " fill="#1F2635" transform="translate(321,241)"/>
</svg>
